<svg height="734" width="720" xmlns="http://www.w3.org/2000/svg">
<rect height="734" fill="#555" width="720"></rect>
<text fill="#7f7" font-family="Courier New" font-size="12" xml:space="preserve">
<tspan x="10" y="26">16 megabytes</tspan>
<tspan x="10" y="42">└─┬ officegen@0.4.4 </tspan>
<tspan x="10" y="58">  ├─┬ archiver@1.3.0 </tspan>
<tspan x="10" y="74">  │ ├─┬ archiver-utils@1.3.0 </tspan>
<tspan x="10" y="90">  │ │ ├── graceful-fs@4.1.11 </tspan>
<tspan x="10" y="106">  │ │ ├── lazystream@1.0.0 </tspan>
<tspan x="10" y="122">  │ │ └─┬ normalize-path@2.1.1 </tspan>
<tspan x="10" y="138">  │ │   └── remove-trailing-separator@1.0.1 </tspan>
<tspan x="10" y="154">  │ ├── buffer-crc32@0.2.13 </tspan>
<tspan x="10" y="170">  │ ├─┬ glob@7.1.1 </tspan>
<tspan x="10" y="186">  │ │ ├── fs.realpath@1.0.0 </tspan>
<tspan x="10" y="202">  │ │ ├─┬ inflight@1.0.6 </tspan>
<tspan x="10" y="218">  │ │ │ └── wrappy@1.0.2 </tspan>
<tspan x="10" y="234">  │ │ ├─┬ minimatch@3.0.3 </tspan>
<tspan x="10" y="250">  │ │ │ └─┬ brace-expansion@1.1.7 </tspan>
<tspan x="10" y="266">  │ │ │   ├── balanced-match@0.4.2 </tspan>
<tspan x="10" y="282">  │ │ │   └── concat-map@0.0.1 </tspan>
<tspan x="10" y="298">  │ │ ├── once@1.4.0 </tspan>
<tspan x="10" y="314">  │ │ └── path-is-absolute@1.0.1 </tspan>
<tspan x="10" y="330">  │ ├─┬ tar-stream@1.5.2 </tspan>
<tspan x="10" y="346">  │ │ ├── bl@1.2.0 </tspan>
<tspan x="10" y="362">  │ │ ├── end-of-stream@1.4.0 </tspan>
<tspan x="10" y="378">  │ │ └── xtend@4.0.1 </tspan>
<tspan x="10" y="394">  │ ├── walkdir@0.0.11 </tspan>
<tspan x="10" y="410">  │ └─┬ zip-stream@1.1.1 </tspan>
<tspan x="10" y="426">  │   └─┬ compress-commons@1.2.0 </tspan>
<tspan x="10" y="442">  │     └─┬ crc32-stream@2.0.0 </tspan>
<tspan x="10" y="458">  │       └── crc@3.4.4 </tspan>
<tspan x="10" y="474">  ├── async@2.3.0 </tspan>
<tspan x="10" y="490">  ├── fast-image-size@0.1.3 </tspan>
<tspan x="10" y="506">  ├─┬ jszip@2.6.1 </tspan>
<tspan x="10" y="522">  │ └── pako@1.0.5 </tspan>
<tspan x="10" y="538">  ├── lodash@4.17.4 </tspan>
<tspan x="10" y="554">  ├─┬ readable-stream@2.2.7 </tspan>
<tspan x="10" y="570">  │ ├── buffer-shims@1.0.0 </tspan>
<tspan x="10" y="586">  │ ├── core-util-is@1.0.2 </tspan>
<tspan x="10" y="602">  │ ├── inherits@2.0.3 </tspan>
<tspan x="10" y="618">  │ ├── isarray@1.0.0 </tspan>
<tspan x="10" y="634">  │ ├── process-nextick-args@1.0.7 </tspan>
<tspan x="10" y="650">  │ ├── string_decoder@1.0.0 </tspan>
<tspan x="10" y="666">  │ └── util-deprecate@1.0.2 </tspan>
<tspan x="10" y="682">  ├── setimmediate@1.0.5 </tspan>
<tspan x="10" y="698">  └─┬ xmlbuilder@3.1.0 </tspan>
<tspan x="10" y="714">    └── lodash@3.10.1</tspan>
</text>
</svg>
